<svg version="1.1" id="Layer_1" xmlns="http://www.w3.org/2000/svg" xmlns:xlink="http://www.w3.org/1999/xlink" x="0px" y="0px"
	 width="100%" viewBox="0 0 1024 544" enable-background="new 0 0 1024 544" xml:space="preserve">
<path fill="#000000" opacity="1.000000" stroke="none" 
	d="
M679.052307,445.408936 
	C659.314514,446.409149 639.989197,445.885895 620.671692,445.896454 
	C593.697693,445.911194 566.715393,445.111877 539.751282,445.552856 
	C497.267395,446.247589 454.787292,445.623383 412.306793,445.938202 
	C392.491211,446.085052 372.673309,446.046814 352.857208,445.945557 
	C340.922974,445.884583 333.898926,440.369507 331.347198,429.774536 
	C330.100128,424.596527 332.064728,420.243866 334.410187,416.007141 
	C344.412811,397.938751 354.500427,379.917328 364.584595,361.894196 
	C393.699646,309.857758 422.839508,257.835205 451.946289,205.794128 
	C466.660889,179.485336 481.326019,153.148895 496.011322,126.823700 
	C498.815765,121.796463 502.022858,117.149399 507.781433,115.130440 
	C515.304260,112.492928 523.011963,115.283775 527.793030,123.242462 
	C534.822632,134.944321 541.365784,146.940445 548.029846,158.859451 
	C569.811401,197.816544 591.540161,236.803085 613.314819,275.763977 
	C638.991516,321.706665 664.718323,367.621338 690.354004,413.586914 
	C693.254883,418.788269 696.252930,423.972900 694.533142,430.532745 
	C692.417419,438.603394 687.603149,443.571228 679.052307,445.408936 
M522.422546,283.500183 
	C522.419739,329.160767 522.465942,374.821503 522.336365,420.481720 
	C522.323669,424.940826 523.540283,426.693054 528.245789,426.680176 
	C574.905762,426.552673 621.566162,426.611359 668.226440,426.574707 
	C670.158203,426.573181 672.228577,427.016632 674.773804,425.197449 
	C624.718811,335.755005 574.647644,246.283600 524.576477,156.812195 
	C523.857483,157.000015 523.138550,157.187836 522.419556,157.375656 
	C522.419556,199.083939 522.419556,240.792206 522.422546,283.500183 
M379.784210,374.219147 
	C370.398529,391.179749 361.012817,408.140350 351.707550,424.955597 
	C353.788666,426.740509 355.492493,426.559509 357.138123,426.560059 
	C403.798431,426.575684 450.458710,426.593323 497.119019,426.580170 
	C503.543854,426.578369 503.591217,426.504700 503.595764,419.939941 
	C503.618225,387.609039 503.737793,355.277588 503.584259,322.947418 
	C503.421234,288.622955 503.914886,254.299042 503.200439,219.971756 
	C502.809082,201.170120 503.460205,182.347519 503.558228,163.533936 
	C503.568542,161.551865 504.430084,159.121094 501.201599,157.454636 
	C460.835724,229.537674 420.500885,301.565308 379.784210,374.219147 
z"/>
</svg>